<svg xmlns="http://www.w3.org/2000/svg" width="24.986" height="24.986" viewBox="0 0 24.986 24.986">
  <g id="ods" transform="translate(-739.007 -1151.007)">
    <path id="Rectangle_15" data-name="Rectangle 15" d="M751.5,1151.007l12.493,12.493L751.5,1175.993,739.007,1163.5Z" fill="#1c242a"/>
    <path id="palm" d="M752.262,1168.666a2.267,2.267,0,0,1-1.158.335c-1.889,0-4.1-2.632-4.1-4.875v-4.875a.694.694,0,1,1,1.368,0v3.178a6.536,6.536,0,0,1,.684.009v-4.812a.695.695,0,1,1,1.369,0v4.875c.225,0,.454-.009.684-.021v-5.667a.694.694,0,1,1,1.368,0v5.61a4.75,4.75,0,0,1,.684.045v-4.03a.694.694,0,1,1,1.368,0v4.9c.687-.64,2.137-1.738,2.475-1.336.4.476-.6,2.524-1,3l-3,4a.189.189,0,0,1-.151.073C752.693,1169.074,752.485,1168.907,752.262,1168.666Z" fill="#fff"/>
  </g>
</svg>
