<svg xmlns="http://www.w3.org/2000/svg" width="24.986" height="24.986" viewBox="0 0 24.986 24.986">
  <g id="ods" transform="translate(-539.007 -1151.007)">
    <path id="Rectangle_15" data-name="Rectangle 15" d="M551.5,1151.007l12.493,12.493L551.5,1175.993,539.007,1163.5Z" fill="#1c242a"/>
    <path id="eye" d="M544,1164c0-2.205,3.14-4,7-4s7,1.795,7,4-3.14,4-7,4S544,1166.206,544,1164Zm1.4,0c0,1.836,2.512,3.33,5.6,3.33s5.6-1.494,5.6-3.33-2.512-3.33-5.6-3.33S545.4,1162.164,545.4,1164Zm2.49,0a3.111,3.111,0,1,1,3.109,3.2A3.156,3.156,0,0,1,547.89,1164Z" fill="#fff"/>
  </g>
</svg>
