<svg xmlns="http://www.w3.org/2000/svg" width="85.448" height="374.995" viewBox="0 0 85.448 374.995">
  <g id="pattern" transform="translate(-519.55 -2547.003)">
    <g id="Shape_83" data-name="Shape 83" fill="none">
      <path d="M560.41,2625.17a2.19,2.19,0,1,1,2.19,2.19A2.19,2.19,0,0,1,560.41,2625.17Zm5.234-2.7,15.306-15.319-3.755-3.916.527-.507,3.745,3.9,14.25-14.262.519.518-14.261,14.273,13.284,13.851-.526.507-13.275-13.84-15.3,15.309Zm-22.078-14.86-13.337,13.906-.529-.509,13.348-13.916L528.971,2593l.517-.517,14.066,14.079,3.749-3.909.529.509-3.759,3.919,15.376,15.39-.517.518Zm.765-18.873a18.27,18.27,0,1,1,18.27,18.22A18.245,18.245,0,0,1,544.33,2588.74Zm52.63,0a2.19,2.19,0,1,1,2.19,2.19A2.19,2.19,0,0,1,596.96,2588.74Zm-73.1,0a2.19,2.19,0,1,1,2.19,2.19A2.19,2.19,0,0,1,523.86,2588.74Zm56.523-17.812-2.908,2.772-.5-.528,2.9-2.76-14.732-14.686.515-.513,14.744,14.7,13.39-12.767.506.527-13.379,12.756,15.326,15.278-.515.514Zm-51.663,14.638,15.251-15.2-13.06-12.453.5-.525,13.072,12.464,14.934-14.887.518.516-14.923,14.875,3.149,3-.5.525-3.161-3.014-15.263,15.215Zm31.691-33.256a2.19,2.19,0,1,1,2.19,2.19A2.189,2.189,0,0,1,560.41,2552.31Z" stroke="none"/>
      <path d="M 562.5999145507813 2626.360107421875 C 563.2559204101563 2626.360107421875 563.7896118164063 2625.826171875 563.7896118164063 2625.169677734375 C 563.7896118164063 2624.513671875 563.2559204101563 2623.97998046875 562.5999145507813 2623.97998046875 C 561.9439086914063 2623.97998046875 561.4102172851563 2624.513671875 561.4102172851563 2625.169677734375 C 561.4102172851563 2625.826171875 561.9439086914063 2626.360107421875 562.5999145507813 2626.360107421875 M 562.5999145507813 2605.9599609375 C 567.2133178710938 2605.9599609375 571.550537109375 2604.16845703125 574.8125 2600.91552734375 C 578.0738525390625 2597.663330078125 579.8699340820313 2593.33935546875 579.8699340820313 2588.740234375 C 579.8699340820313 2584.140869140625 578.0738525390625 2579.81689453125 574.8125 2576.564453125 C 571.5504760742188 2573.311279296875 567.2133178710938 2571.519775390625 562.5999145507813 2571.519775390625 C 557.9865112304688 2571.519775390625 553.6493530273438 2573.311279296875 550.3873291015625 2576.564453125 C 547.1260375976563 2579.81689453125 545.3298950195313 2584.140869140625 545.3298950195313 2588.740234375 C 545.3298950195313 2593.33935546875 547.1260375976563 2597.663330078125 550.3873291015625 2600.91552734375 C 553.6492919921875 2604.16845703125 557.9865112304688 2605.9599609375 562.5999145507813 2605.9599609375 M 599.1498413085938 2589.929931640625 C 599.8063354492188 2589.929931640625 600.3403930664063 2589.396240234375 600.3403930664063 2588.740234375 C 600.3403930664063 2588.083740234375 599.8063354492188 2587.549560546875 599.1498413085938 2587.549560546875 C 598.4938354492188 2587.549560546875 597.9601440429688 2588.083740234375 597.9601440429688 2588.740234375 C 597.9601440429688 2589.396240234375 598.4938354492188 2589.929931640625 599.1498413085938 2589.929931640625 M 526.0499877929688 2589.929931640625 C 526.7059936523438 2589.929931640625 527.2396850585938 2589.396240234375 527.2396850585938 2588.740234375 C 527.2396850585938 2588.083740234375 526.7059936523438 2587.549560546875 526.0499877929688 2587.549560546875 C 525.3939819335938 2587.549560546875 524.8602905273438 2588.083740234375 524.8602905273438 2588.740234375 C 524.8602905273438 2589.396240234375 525.3939819335938 2589.929931640625 526.0499877929688 2589.929931640625 M 562.5999145507813 2553.499755859375 C 563.2559204101563 2553.499755859375 563.7896118164063 2552.966064453125 563.7896118164063 2552.31005859375 C 563.7896118164063 2551.654052734375 563.2559204101563 2551.120361328125 562.5999145507813 2551.120361328125 C 561.9439086914063 2551.120361328125 561.4102172851563 2551.654052734375 561.4102172851563 2552.31005859375 C 561.4102172851563 2552.966064453125 561.9439086914063 2553.499755859375 562.5999145507813 2553.499755859375 M 562.5999145507813 2627.360107421875 C 561.3903198242188 2627.360107421875 560.4102172851563 2626.379150390625 560.4102172851563 2625.169677734375 C 560.4102172851563 2623.9609375 561.3903198242188 2622.97998046875 562.5999145507813 2622.97998046875 C 563.8095092773438 2622.97998046875 564.7896118164063 2623.9609375 564.7896118164063 2625.169677734375 C 564.7896118164063 2626.379150390625 563.8095092773438 2627.360107421875 562.5999145507813 2627.360107421875 Z M 566.1630249023438 2622.992431640625 L 565.6437377929688 2622.47314453125 L 580.9497680664063 2607.15380859375 L 577.1943359375 2603.23828125 L 577.7217407226563 2602.731689453125 L 581.4667358398438 2606.636474609375 L 595.71630859375 2592.37451171875 L 596.235595703125 2592.892822265625 L 581.9749755859375 2607.166259765625 L 595.2590942382813 2621.016845703125 L 594.7326049804688 2621.523681640625 L 581.4580688476563 2607.68359375 L 566.1630249023438 2622.992431640625 Z M 558.9306030273438 2622.992431640625 L 543.5652465820313 2607.61279296875 L 530.227783203125 2621.518310546875 L 529.6986083984375 2621.009765625 L 543.0464477539063 2607.093505859375 L 528.9705200195313 2593.00439453125 L 529.4871215820313 2592.487060546875 L 543.5526733398438 2606.565673828125 L 547.3016967773438 2602.656982421875 L 547.8309326171875 2603.16552734375 L 544.071533203125 2607.0849609375 L 559.4472045898438 2622.474853515625 L 558.9306030273438 2622.992431640625 Z M 562.5999145507813 2606.9599609375 C 552.510009765625 2606.9599609375 544.3298950195313 2598.80322265625 544.3298950195313 2588.740234375 C 544.3298950195313 2578.67724609375 552.510009765625 2570.519775390625 562.5999145507813 2570.519775390625 C 572.6898193359375 2570.519775390625 580.8699340820313 2578.67724609375 580.8699340820313 2588.740234375 C 580.8699340820313 2598.80322265625 572.6898193359375 2606.9599609375 562.5999145507813 2606.9599609375 Z M 599.1498413085938 2590.929931640625 C 597.940185546875 2590.929931640625 596.9601440429688 2589.949951171875 596.9601440429688 2588.740234375 C 596.9601440429688 2587.53076171875 597.940185546875 2586.549560546875 599.1498413085938 2586.549560546875 C 600.3594360351563 2586.549560546875 601.3403930664063 2587.53076171875 601.3403930664063 2588.740234375 C 601.3403930664063 2589.949951171875 600.3594360351563 2590.929931640625 599.1498413085938 2590.929931640625 Z M 526.0499877929688 2590.929931640625 C 524.8403930664063 2590.929931640625 523.8602905273438 2589.949951171875 523.8602905273438 2588.740234375 C 523.8602905273438 2587.53076171875 524.8403930664063 2586.549560546875 526.0499877929688 2586.549560546875 C 527.2595825195313 2586.549560546875 528.2396850585938 2587.53076171875 528.2396850585938 2588.740234375 C 528.2396850585938 2589.949951171875 527.2595825195313 2590.929931640625 526.0499877929688 2590.929931640625 Z M 595.7208251953125 2586.217529296875 L 580.3828735351563 2570.927978515625 L 577.47509765625 2573.700439453125 L 576.97021484375 2573.1728515625 L 579.8656005859375 2570.412353515625 L 565.1334228515625 2555.7265625 L 565.648193359375 2555.21337890625 L 580.3919677734375 2569.910400390625 L 593.7822265625 2557.14306640625 L 594.2880249023438 2557.669677734375 L 580.9092407226563 2570.426025390625 L 596.235595703125 2585.70361328125 L 595.7208251953125 2586.217529296875 Z M 529.2360229492188 2586.08154296875 L 528.7194213867188 2585.56591796875 L 543.9708862304688 2570.36279296875 L 530.910888671875 2557.909912109375 L 531.4140014648438 2557.38525390625 L 544.48583984375 2569.849365234375 L 559.4202270507813 2554.96240234375 L 559.937744140625 2555.47802734375 L 545.0145263671875 2570.353515625 L 548.1639404296875 2573.3564453125 L 547.6608276367188 2573.88134765625 L 544.49951171875 2570.866943359375 L 529.2360229492188 2586.08154296875 Z M 562.5999145507813 2554.499755859375 C 561.3903198242188 2554.499755859375 560.4102172851563 2553.519775390625 560.4102172851563 2552.31005859375 C 560.4102172851563 2551.100341796875 561.3903198242188 2550.120361328125 562.5999145507813 2550.120361328125 C 563.8095092773438 2550.120361328125 564.7896118164063 2551.100341796875 564.7896118164063 2552.31005859375 C 564.7896118164063 2553.519775390625 563.8095092773438 2554.499755859375 562.5999145507813 2554.499755859375 Z" stroke="none" fill="#bb9c66"/>
    </g>
    <g id="Shape_84" data-name="Shape 84" fill="#bb9c66">
      <path d="M 599.2902221679688 2921.282958984375 L 594.2831420898438 2916.171142578125 L 599.290283203125 2911.05810546875 L 604.298095703125 2916.171142578125 L 599.2902221679688 2921.282958984375 Z M 525.9151000976563 2921.282958984375 L 520.9080200195313 2916.171142578125 L 525.9151000976563 2911.05810546875 L 530.9229125976563 2916.171142578125 L 525.9151000976563 2921.282958984375 Z M 525.688232421875 2848.631103515625 L 520.7102661132813 2843.669677734375 L 525.688232421875 2838.70849609375 L 530.6653442382813 2843.669677734375 L 525.688232421875 2848.631103515625 Z M 598.7862548828125 2848.631103515625 L 593.8091430664063 2843.669677734375 L 598.7862548828125 2838.70849609375 L 603.7640991210938 2843.669677734375 L 598.7862548828125 2848.631103515625 Z M 599.290283203125 2774.283447265625 L 594.2831420898438 2769.17041015625 L 599.2902221679688 2764.058349609375 L 604.298095703125 2769.17041015625 L 599.290283203125 2774.283447265625 Z M 525.9151000976563 2774.283447265625 L 520.9080200195313 2769.17041015625 L 525.9150390625 2764.058349609375 L 530.9229125976563 2769.17041015625 L 525.9151000976563 2774.283447265625 Z M 525.688232421875 2701.63134765625 L 520.7102661132813 2696.670166015625 L 525.688232421875 2691.7080078125 L 530.6653442382813 2696.670166015625 L 525.688232421875 2701.63134765625 Z M 598.7862548828125 2701.63134765625 L 593.80908203125 2696.670166015625 L 598.7862548828125 2691.7080078125 L 603.76416015625 2696.670166015625 L 598.7862548828125 2701.63134765625 Z M 599.290283203125 2630.283447265625 L 594.2831420898438 2625.17041015625 L 599.2902221679688 2620.058349609375 L 604.298095703125 2625.17041015625 L 599.290283203125 2630.283447265625 Z M 525.9151000976563 2630.283447265625 L 520.9080200195313 2625.17041015625 L 525.9150390625 2620.058349609375 L 530.9229125976563 2625.17041015625 L 525.9151000976563 2630.283447265625 Z M 525.688232421875 2557.63134765625 L 520.7102661132813 2552.670166015625 L 525.688232421875 2547.708740234375 L 530.6653442382813 2552.670166015625 L 525.688232421875 2557.63134765625 Z M 598.7862548828125 2557.63134765625 L 593.8091430664063 2552.670166015625 L 598.7862548828125 2547.708740234375 L 603.7640991210938 2552.670166015625 L 598.7862548828125 2557.63134765625 Z" stroke="none"/>
      <path d="M 599.290283203125 2920.568603515625 L 603.5982055664063 2916.171142578125 L 599.290283203125 2911.772705078125 L 594.9830322265625 2916.171142578125 L 599.290283203125 2920.568603515625 M 525.9151000976563 2920.568603515625 L 530.2229614257813 2916.171142578125 L 525.9151000976563 2911.772705078125 L 521.6078491210938 2916.171142578125 L 525.9151000976563 2920.568603515625 M 598.7862548828125 2847.92529296875 L 603.0558471679688 2843.669677734375 L 598.7862548828125 2839.414306640625 L 594.517333984375 2843.669677734375 L 598.7862548828125 2847.92529296875 M 525.6881713867188 2847.92529296875 L 529.9570922851563 2843.669677734375 L 525.6881713867188 2839.414306640625 L 521.4185791015625 2843.669677734375 L 525.6881713867188 2847.92529296875 M 599.290283203125 2773.56884765625 L 603.5982055664063 2769.17041015625 L 599.290283203125 2764.77294921875 L 594.9829711914063 2769.17041015625 L 599.290283203125 2773.56884765625 M 525.9151000976563 2773.56884765625 L 530.2229614257813 2769.17041015625 L 525.9151000976563 2764.77294921875 L 521.6078491210938 2769.17041015625 L 525.9151000976563 2773.56884765625 M 598.7862548828125 2700.925537109375 L 603.055908203125 2696.670166015625 L 598.7862548828125 2692.4140625 L 594.5172729492188 2696.670166015625 L 598.7862548828125 2700.925537109375 M 525.6881713867188 2700.925537109375 L 529.9571533203125 2696.670166015625 L 525.6881713867188 2692.4140625 L 521.4185180664063 2696.670166015625 L 525.6881713867188 2700.925537109375 M 599.290283203125 2629.56884765625 L 603.5982055664063 2625.17041015625 L 599.290283203125 2620.77294921875 L 594.9829711914063 2625.17041015625 L 599.290283203125 2629.56884765625 M 525.9151000976563 2629.56884765625 L 530.2229614257813 2625.17041015625 L 525.9151000976563 2620.77294921875 L 521.6078491210938 2625.17041015625 L 525.9151000976563 2629.56884765625 M 598.7862548828125 2556.925537109375 L 603.0558471679688 2552.670166015625 L 598.7862548828125 2548.41455078125 L 594.517333984375 2552.670166015625 L 598.7862548828125 2556.925537109375 M 525.6881713867188 2556.925537109375 L 529.9570922851563 2552.670166015625 L 525.6881713867188 2548.41455078125 L 521.4185791015625 2552.670166015625 L 525.6881713867188 2556.925537109375 M 599.2902221679688 2921.99755859375 L 593.5833129882813 2916.171142578125 L 599.2902221679688 2910.343505859375 L 604.9979858398438 2916.171142578125 L 599.2902221679688 2921.99755859375 Z M 525.9151000976563 2921.99755859375 L 520.2081298828125 2916.171142578125 L 525.9151000976563 2910.343505859375 L 531.622802734375 2916.171142578125 L 525.9151000976563 2921.99755859375 Z M 598.7861938476563 2849.337158203125 L 593.100830078125 2843.669677734375 L 598.7861938476563 2838.00244140625 L 604.472412109375 2843.669677734375 L 598.7861938476563 2849.337158203125 Z M 525.688232421875 2849.337158203125 L 520.0020141601563 2843.669677734375 L 525.688232421875 2838.00244140625 L 531.3735961914063 2843.669677734375 L 525.688232421875 2849.337158203125 Z M 599.2902221679688 2774.998046875 L 593.5833129882813 2769.17041015625 L 599.2902221679688 2763.34375 L 604.9979858398438 2769.17041015625 L 599.2902221679688 2774.998046875 Z M 525.9151000976563 2774.998046875 L 520.2081298828125 2769.17041015625 L 525.9151000976563 2763.34375 L 531.622802734375 2769.17041015625 L 525.9151000976563 2774.998046875 Z M 598.7861938476563 2702.33740234375 L 593.100830078125 2696.670166015625 L 598.7861938476563 2691.001953125 L 604.472412109375 2696.670166015625 L 598.7861938476563 2702.33740234375 Z M 525.688232421875 2702.33740234375 L 520.0020141601563 2696.670166015625 L 525.688232421875 2691.001953125 L 531.3735961914063 2696.670166015625 L 525.688232421875 2702.33740234375 Z M 599.2902221679688 2630.998046875 L 593.5833129882813 2625.17041015625 L 599.2902221679688 2619.34375 L 604.9979858398438 2625.17041015625 L 599.2902221679688 2630.998046875 Z M 525.9151000976563 2630.998046875 L 520.2081298828125 2625.17041015625 L 525.9151000976563 2619.34375 L 531.622802734375 2625.17041015625 L 525.9151000976563 2630.998046875 Z M 598.7861938476563 2558.33740234375 L 593.100830078125 2552.670166015625 L 598.7861938476563 2547.002685546875 L 604.472412109375 2552.670166015625 L 598.7861938476563 2558.33740234375 Z M 525.688232421875 2558.33740234375 L 520.0020141601563 2552.670166015625 L 525.688232421875 2547.002685546875 L 531.3735961914063 2552.670166015625 L 525.688232421875 2558.33740234375 Z" stroke="none" fill="#bb9c66"/>
    </g>
    <g id="Shape_83-2" data-name="Shape 83" fill="none">
      <path d="M593.5,2916.088l5.751-5.82,5.752,5.82-5.752,5.819Zm-73.945,0,5.751-5.82,5.752,5.82-5.752,5.819Zm40.51,0a2.21,2.21,0,1,1,2.209,2.18A2.195,2.195,0,0,1,560.06,2916.09Zm5.279-2.7,15.424-15.3-3.784-3.911.532-.506,3.774,3.9,14.36-14.245.523.519L581.8,2898.106l13.388,13.833-.531.507-13.378-13.823-15.413,15.289Zm-22.25-14.842-13.441,13.889-.533-.509,13.451-13.9-14.186-14.072.521-.517,14.175,14.061,3.778-3.9.533.509-3.788,3.914,15.5,15.371-.521.517Zm.761-18.851a18.421,18.421,0,1,1,18.419,18.19A18.306,18.306,0,0,1,543.85,2879.7Zm53.05,0a2.21,2.21,0,1,1,2.21,2.18A2.2,2.2,0,0,1,596.9,2879.7Zm-73.67,0a2.21,2.21,0,1,1,2.21,2.18A2.2,2.2,0,0,1,523.23,2879.7Zm56.962-17.789-2.93,2.769-.509-.525,2.918-2.758-14.847-14.668.519-.513L580.2,2860.9l13.494-12.752.509.527-13.483,12.74,15.445,15.259-.518.513Zm-52.065,14.621,15.37-15.184-13.161-12.438.507-.524,13.174,12.448,15.05-14.868.521.514-15.039,14.857,3.174,3-.508.525-3.186-3.011-15.381,15.2Zm65.4-33.387,5.737-5.821,5.737,5.821-5.737,5.823Zm-73.754,0,5.737-5.821,5.737,5.821-5.737,5.823Zm40.41,0a2.2,2.2,0,1,1,2.2,2.181A2.191,2.191,0,0,1,560.18,2843.15Zm5.261-2.7,15.384-15.305-3.775-3.912.53-.507,3.765,3.9,14.324-14.251.521.519-14.334,14.261L595.209,2839l-.529.507-13.344-13.829-15.373,15.3ZM543.248,2825.6,529.842,2839.5l-.532-.509,13.417-13.9-14.149-14.078.519-.517,14.139,14.067L547,2820.65l.532.508-3.779,3.917,15.456,15.377-.519.517Zm.762-18.862a18.371,18.371,0,1,1,18.37,18.2A18.285,18.285,0,0,1,544.01,2806.74Zm52.909,0a2.2,2.2,0,1,1,2.2,2.18A2.19,2.19,0,0,1,596.92,2806.74Zm-73.47,0a2.2,2.2,0,1,1,2.2,2.18A2.19,2.19,0,0,1,523.45,2806.74Zm56.805-17.792-2.922,2.77-.508-.527,2.91-2.758-14.808-14.674.518-.513,14.82,14.685,13.46-12.757.508.526-13.448,12.746,15.405,15.266-.517.513Zm-51.93,14.625,15.331-15.19-13.128-12.443.507-.525,13.139,12.454L559.185,2773l.519.515-15,14.863,3.166,3-.506.524-3.178-3.012-15.342,15.2Zm65.228-33.4,5.722-5.824,5.722,5.824L599.276,2776Zm-73.564,0,5.721-5.824,5.722,5.824L525.711,2776Zm40.3,0a2.2,2.2,0,1,1,2.2,2.18A2.191,2.191,0,0,1,560.29,2770.17Zm5.253-2.694,15.345-15.312-3.766-3.914.529-.507,3.755,3.9,14.286-14.256.52.518-14.3,14.267,13.319,13.846-.529.507L581.4,2752.693,566.062,2768Zm-22.136-14.854-13.373,13.9-.53-.509,13.383-13.911-14.113-14.083.518-.517,14.1,14.073,3.759-3.907.53.509-3.769,3.918,15.416,15.384-.518.517Zm.763-18.862a18.32,18.32,0,1,1,18.32,18.21A18.265,18.265,0,0,1,544.17,2733.76Zm52.771,0a2.2,2.2,0,1,1,2.2,2.19A2.194,2.194,0,0,1,596.94,2733.76Zm-73.291,0a2.2,2.2,0,1,1,2.2,2.19A2.2,2.2,0,0,1,523.65,2733.76Zm56.669-17.808-2.915,2.771-.507-.525,2.9-2.76-14.771-14.68.517-.513,14.782,14.691,13.425-12.762.507.526-13.413,12.75,15.366,15.272-.517.513Zm-51.8,14.633,15.291-15.2-13.094-12.448.5-.525,13.106,12.459,14.973-14.881.518.515-14.961,14.869,3.158,3-.5.525-3.17-3.013-15.3,15.208Zm65.061-33.414,5.707-5.827L605,2697.17,599.29,2703Zm-73.375,0,5.707-5.827,5.708,5.827L525.915,2703Zm40.2,0a2.19,2.19,0,1,1,2.19,2.19A2.19,2.19,0,0,1,560.41,2697.17Zm5.234-2.7,15.306-15.319-3.755-3.916.527-.506,3.745,3.9,14.25-14.262.519.519-14.261,14.273,13.285,13.851-.526.506-13.275-13.84-15.3,15.308Zm-22.078-14.861-13.338,13.906-.529-.508,13.348-13.917L528.971,2665l.517-.517,14.066,14.079,3.749-3.909.529.509-3.759,3.919,15.376,15.39-.517.517Zm.764-18.872a18.27,18.27,0,1,1,18.27,18.22A18.245,18.245,0,0,1,544.33,2660.74Zm52.63,0a2.19,2.19,0,1,1,2.19,2.19A2.19,2.19,0,0,1,596.96,2660.74Zm-73.1,0a2.19,2.19,0,1,1,2.19,2.19A2.19,2.19,0,0,1,523.86,2660.74Zm56.522-17.813-2.908,2.772-.5-.527,2.9-2.761-14.732-14.686.515-.514,14.744,14.7,13.39-12.767.506.527-13.379,12.756,15.326,15.278-.515.513Zm-51.663,14.639,15.251-15.2-13.06-12.453.5-.525,13.072,12.464,14.934-14.887.518.516-14.923,14.875,3.15,3-.5.525-3.161-3.015-15.263,15.214Z" stroke="none"/>
      <path d="M 599.2461547851563 2920.485107421875 L 603.5919799804688 2916.08837890625 L 599.2461547851563 2911.690673828125 L 594.9010009765625 2916.08837890625 L 599.2461547851563 2920.485107421875 M 525.30126953125 2920.485107421875 L 529.6470947265625 2916.08837890625 L 525.30126953125 2911.690673828125 L 520.9561157226563 2916.08837890625 L 525.30126953125 2920.485107421875 M 562.2695922851563 2917.269775390625 C 562.9370727539063 2917.269775390625 563.4800415039063 2916.74072265625 563.4800415039063 2916.090087890625 C 563.4800415039063 2915.439453125 562.9370727539063 2914.91015625 562.2695922851563 2914.91015625 C 561.6026611328125 2914.91015625 561.0601196289063 2915.439453125 561.0601196289063 2916.090087890625 C 561.0601196289063 2916.74072265625 561.6026611328125 2917.269775390625 562.2695922851563 2917.269775390625 M 562.2695922851563 2896.890380859375 C 566.9252319335938 2896.890380859375 571.301513671875 2895.1005859375 574.5922241210938 2891.85107421875 C 577.8795166015625 2888.604736328125 579.68994140625 2884.28955078125 579.68994140625 2879.700439453125 C 579.68994140625 2875.11083984375 577.8795166015625 2870.79541015625 574.5922241210938 2867.548828125 C 571.3015747070313 2864.299072265625 566.92529296875 2862.509521484375 562.2695922851563 2862.509521484375 C 557.6143798828125 2862.509521484375 553.2384033203125 2864.299072265625 549.9478759765625 2867.548828125 C 546.6605834960938 2870.79541015625 544.8502197265625 2875.11083984375 544.8502197265625 2879.700439453125 C 544.8502197265625 2884.28955078125 546.6605834960938 2888.604736328125 549.9478759765625 2891.85107421875 C 553.2384643554688 2895.1005859375 557.6144409179688 2896.890380859375 562.2695922851563 2896.890380859375 M 599.1102294921875 2880.880126953125 C 599.7771606445313 2880.880126953125 600.3197631835938 2880.350830078125 600.3197631835938 2879.700439453125 C 600.3197631835938 2879.04931640625 599.7771606445313 2878.519775390625 599.1102294921875 2878.519775390625 C 598.44287109375 2878.519775390625 597.8998413085938 2879.04931640625 597.8998413085938 2879.700439453125 C 597.8998413085938 2880.350830078125 598.44287109375 2880.880126953125 599.1102294921875 2880.880126953125 M 525.4398193359375 2880.880126953125 C 526.1072387695313 2880.880126953125 526.6502075195313 2880.350830078125 526.6502075195313 2879.700439453125 C 526.6502075195313 2879.04931640625 526.1072387695313 2878.519775390625 525.4398193359375 2878.519775390625 C 524.7728881835938 2878.519775390625 524.2302856445313 2879.04931640625 524.2302856445313 2879.700439453125 C 524.2302856445313 2880.350830078125 524.7728881835938 2880.880126953125 525.4398193359375 2880.880126953125 M 599.2613525390625 2847.543212890625 L 603.5941162109375 2843.14501953125 L 599.2613525390625 2838.74853515625 L 594.9279174804688 2843.14501953125 L 599.2613525390625 2847.543212890625 M 525.5064086914063 2847.54296875 L 529.8391723632813 2843.14501953125 L 525.5064086914063 2838.748779296875 L 521.1737670898438 2843.14501953125 L 525.5064086914063 2847.54296875 M 562.3803100585938 2844.330322265625 C 563.0418090820313 2844.330322265625 563.5798950195313 2843.80078125 563.5798950195313 2843.149658203125 C 563.5798950195313 2842.4990234375 563.0418090820313 2841.9697265625 562.3803100585938 2841.9697265625 C 561.7183837890625 2841.9697265625 561.1798095703125 2842.4990234375 561.1798095703125 2843.149658203125 C 561.1798095703125 2843.80078125 561.7183837890625 2844.330322265625 562.3803100585938 2844.330322265625 M 562.3803100585938 2823.93994140625 C 567.021484375 2823.93994140625 571.384521484375 2822.149658203125 574.6657104492188 2818.89892578125 C 577.9445190429688 2815.650390625 579.750244140625 2811.332275390625 579.750244140625 2806.739990234375 C 579.750244140625 2802.147705078125 577.9445190429688 2797.829833984375 574.665771484375 2794.58154296875 C 571.384521484375 2791.33056640625 567.021484375 2789.540283203125 562.3803100585938 2789.540283203125 C 557.73876953125 2789.540283203125 553.3756713867188 2791.33056640625 550.0945434570313 2794.58154296875 C 546.8159790039063 2797.82958984375 545.0104370117188 2802.147705078125 545.0104370117188 2806.739990234375 C 545.0104370117188 2811.33251953125 546.8159790039063 2815.650390625 550.0945434570313 2818.89892578125 C 553.3756713867188 2822.149658203125 557.73876953125 2823.93994140625 562.3803100585938 2823.93994140625 M 599.1201171875 2807.919921875 C 599.7816162109375 2807.919921875 600.3197631835938 2807.390625 600.3197631835938 2806.739990234375 C 600.3197631835938 2806.089599609375 599.7816162109375 2805.560302734375 599.1201171875 2805.560302734375 C 598.4581909179688 2805.560302734375 597.9196166992188 2806.089599609375 597.9196166992188 2806.739990234375 C 597.9196166992188 2807.390625 598.4581909179688 2807.919921875 599.1201171875 2807.919921875 M 525.6504516601563 2807.919921875 C 526.3119506835938 2807.919921875 526.8500366210938 2807.390625 526.8500366210938 2806.739990234375 C 526.8500366210938 2806.089599609375 526.3119506835938 2805.560302734375 525.6504516601563 2805.560302734375 C 524.9884643554688 2805.560302734375 524.449951171875 2806.089599609375 524.449951171875 2806.739990234375 C 524.449951171875 2807.390625 524.9884643554688 2807.919921875 525.6504516601563 2807.919921875 M 599.2758178710938 2774.57080078125 L 603.5960693359375 2770.173095703125 L 599.2758178710938 2765.77587890625 L 594.9555053710938 2770.173095703125 L 599.2758178710938 2774.57080078125 M 525.7107543945313 2774.57080078125 L 530.031005859375 2770.173095703125 L 525.7107543945313 2765.776123046875 L 521.3911743164063 2770.173095703125 L 525.7107543945313 2774.57080078125 M 562.4901123046875 2771.35009765625 C 563.1515502929688 2771.35009765625 563.689697265625 2770.821044921875 563.689697265625 2770.17041015625 C 563.689697265625 2769.519287109375 563.1515502929688 2768.98974609375 562.4901123046875 2768.98974609375 C 561.8281860351563 2768.98974609375 561.2896118164063 2769.519287109375 561.2896118164063 2770.17041015625 C 561.2896118164063 2770.821044921875 561.8281860351563 2771.35009765625 562.4901123046875 2771.35009765625 M 562.4901123046875 2750.9697265625 C 567.1176147460938 2750.9697265625 571.4676513671875 2749.178955078125 574.7390747070313 2745.92724609375 C 578.0088500976563 2742.677001953125 579.8096313476563 2738.35595703125 579.8096313476563 2733.760009765625 C 579.8096313476563 2729.1640625 578.0088500976563 2724.843017578125 574.7390747070313 2721.5927734375 C 571.4677124023438 2718.341064453125 567.1176147460938 2716.55029296875 562.4901123046875 2716.55029296875 C 557.862548828125 2716.55029296875 553.5122680664063 2718.341064453125 550.2406616210938 2721.5927734375 C 546.9705810546875 2724.843017578125 545.1697387695313 2729.1640625 545.1697387695313 2733.760009765625 C 545.1697387695313 2738.35595703125 546.9705810546875 2742.6767578125 550.2406616210938 2745.927001953125 C 553.5122680664063 2749.178955078125 557.862548828125 2750.9697265625 562.4901123046875 2750.9697265625 M 599.139892578125 2734.94970703125 C 599.8018798828125 2734.94970703125 600.3403930664063 2734.416015625 600.3403930664063 2733.760009765625 C 600.3403930664063 2733.10400390625 599.8018798828125 2732.5703125 599.139892578125 2732.5703125 C 598.4783935546875 2732.5703125 597.9403076171875 2733.10400390625 597.9403076171875 2733.760009765625 C 597.9403076171875 2734.416015625 598.4783935546875 2734.94970703125 599.139892578125 2734.94970703125 M 525.8502197265625 2734.94970703125 C 526.5116577148438 2734.94970703125 527.0498046875 2734.416015625 527.0498046875 2733.760009765625 C 527.0498046875 2733.10400390625 526.5116577148438 2732.5703125 525.8502197265625 2732.5703125 C 525.1882934570313 2732.5703125 524.6497192382813 2733.10400390625 524.6497192382813 2733.760009765625 C 524.6497192382813 2734.416015625 525.1882934570313 2734.94970703125 525.8502197265625 2734.94970703125 M 599.290283203125 2701.56884765625 L 603.59814453125 2697.17041015625 L 599.2903442382813 2692.77294921875 L 594.9830322265625 2697.17041015625 L 599.290283203125 2701.56884765625 M 525.9150390625 2701.56884765625 L 530.2229614257813 2697.17041015625 L 525.9151000976563 2692.77294921875 L 521.6078491210938 2697.17041015625 L 525.9150390625 2701.56884765625 M 562.5999145507813 2698.360107421875 C 563.2559204101563 2698.360107421875 563.7896118164063 2697.826171875 563.7896118164063 2697.169677734375 C 563.7896118164063 2696.513671875 563.2559204101563 2695.97998046875 562.5999145507813 2695.97998046875 C 561.9439086914063 2695.97998046875 561.4102172851563 2696.513671875 561.4102172851563 2697.169677734375 C 561.4102172851563 2697.826171875 561.9439086914063 2698.360107421875 562.5999145507813 2698.360107421875 M 562.5999145507813 2677.9599609375 C 567.21337890625 2677.9599609375 571.550537109375 2676.16845703125 574.8125 2672.915771484375 C 578.0738525390625 2669.663330078125 579.8699340820313 2665.33935546875 579.8699340820313 2660.740234375 C 579.8699340820313 2656.14111328125 578.0737915039063 2651.81689453125 574.8125 2648.564453125 C 571.5504760742188 2645.311279296875 567.2133178710938 2643.519775390625 562.5999145507813 2643.519775390625 C 557.986572265625 2643.519775390625 553.6493530273438 2645.311279296875 550.3873291015625 2648.564453125 C 547.1259765625 2651.81689453125 545.3298950195313 2656.14111328125 545.3298950195313 2660.740234375 C 545.3298950195313 2665.33935546875 547.1259765625 2669.663330078125 550.3872680664063 2672.915771484375 C 553.6492919921875 2676.16845703125 557.9865112304688 2677.9599609375 562.5999145507813 2677.9599609375 M 599.1498413085938 2661.929931640625 C 599.8063354492188 2661.929931640625 600.3403930664063 2661.396240234375 600.3403930664063 2660.740234375 C 600.3403930664063 2660.083740234375 599.8063354492188 2659.549560546875 599.1498413085938 2659.549560546875 C 598.4938354492188 2659.549560546875 597.9601440429688 2660.083740234375 597.9601440429688 2660.740234375 C 597.9601440429688 2661.396240234375 598.4938354492188 2661.929931640625 599.1498413085938 2661.929931640625 M 526.0499877929688 2661.929931640625 C 526.7059936523438 2661.929931640625 527.2396850585938 2661.396240234375 527.2396850585938 2660.740234375 C 527.2396850585938 2660.083740234375 526.7059936523438 2659.549560546875 526.0499877929688 2659.549560546875 C 525.3939819335938 2659.549560546875 524.8602905273438 2660.083740234375 524.8602905273438 2660.740234375 C 524.8602905273438 2661.396240234375 525.3939819335938 2661.929931640625 526.0499877929688 2661.929931640625 M 599.24609375 2921.90771484375 L 593.4951171875 2916.08837890625 L 599.24609375 2910.26806640625 L 604.9979858398438 2916.08837890625 L 599.24609375 2921.90771484375 Z M 525.3012084960938 2921.90771484375 L 519.5502319335938 2916.08837890625 L 525.3012084960938 2910.26806640625 L 531.0531005859375 2916.08837890625 L 525.3012084960938 2921.90771484375 Z M 562.2695922851563 2918.269775390625 C 561.0491943359375 2918.269775390625 560.0601196289063 2917.294189453125 560.0601196289063 2916.090087890625 C 560.0601196289063 2914.885986328125 561.0491943359375 2913.91015625 562.2695922851563 2913.91015625 C 563.4909057617188 2913.91015625 564.4800415039063 2914.885986328125 564.4800415039063 2916.090087890625 C 564.4800415039063 2917.294189453125 563.4909057617188 2918.269775390625 562.2695922851563 2918.269775390625 Z M 565.8615112304688 2913.912109375 L 565.338623046875 2913.3935546875 L 580.7627563476563 2898.09375 L 576.9783325195313 2894.18310546875 L 577.5101928710938 2893.677490234375 L 581.2838745117188 2897.57666015625 L 595.644287109375 2883.331787109375 L 596.167236328125 2883.850341796875 L 581.7959594726563 2898.10595703125 L 595.1835327148438 2911.939208984375 L 594.6525268554688 2912.446044921875 L 581.2748413085938 2898.622802734375 L 565.8615112304688 2913.912109375 Z M 558.5733032226563 2913.912109375 L 543.0888061523438 2898.5517578125 L 529.6473388671875 2912.440673828125 L 529.114501953125 2911.93212890625 L 542.56591796875 2898.032958984375 L 528.380126953125 2883.9609375 L 528.9011840820313 2883.4443359375 L 543.0762329101563 2897.505615234375 L 546.8544311523438 2893.601806640625 L 547.38720703125 2894.1103515625 L 543.59912109375 2898.0244140625 L 559.0944213867188 2913.3955078125 L 558.5733032226563 2913.912109375 Z M 562.2695922851563 2897.890380859375 C 552.096923828125 2897.890380859375 543.8502197265625 2889.74609375 543.8502197265625 2879.700439453125 C 543.8502197265625 2869.653564453125 552.096923828125 2861.509521484375 562.2695922851563 2861.509521484375 C 572.4432373046875 2861.509521484375 580.68994140625 2869.653564453125 580.68994140625 2879.700439453125 C 580.68994140625 2889.74609375 572.4432373046875 2897.890380859375 562.2695922851563 2897.890380859375 Z M 599.1102294921875 2881.880126953125 C 597.8898315429688 2881.880126953125 596.8998413085938 2880.903564453125 596.8998413085938 2879.700439453125 C 596.8998413085938 2878.49609375 597.8898315429688 2877.519775390625 599.1102294921875 2877.519775390625 C 600.3306274414063 2877.519775390625 601.3197631835938 2878.49609375 601.3197631835938 2879.700439453125 C 601.3197631835938 2880.903564453125 600.3306274414063 2881.880126953125 599.1102294921875 2881.880126953125 Z M 525.4398193359375 2881.880126953125 C 524.2194213867188 2881.880126953125 523.2302856445313 2880.903564453125 523.2302856445313 2879.700439453125 C 523.2302856445313 2878.49609375 524.2194213867188 2877.519775390625 525.4398193359375 2877.519775390625 C 526.6602172851563 2877.519775390625 527.6502075195313 2878.49609375 527.6502075195313 2879.700439453125 C 527.6502075195313 2880.903564453125 526.6602172851563 2881.880126953125 525.4398193359375 2881.880126953125 Z M 595.6488037109375 2877.18212890625 L 580.19189453125 2861.91162109375 L 577.2618408203125 2864.68017578125 L 576.75244140625 2864.15478515625 L 579.6708374023438 2861.39697265625 L 564.8237915039063 2846.728759765625 L 565.3430786132813 2846.2158203125 L 580.201416015625 2860.8955078125 L 593.69580078125 2848.1435546875 L 594.2052001953125 2848.670166015625 L 580.7224731445313 2861.41015625 L 596.167236328125 2876.669189453125 L 595.6488037109375 2877.18212890625 Z M 528.6483154296875 2877.04638671875 L 528.127197265625 2876.532470703125 L 543.4970092773438 2861.34814453125 L 530.3358154296875 2848.910400390625 L 530.842529296875 2848.38671875 L 544.0164184570313 2860.8349609375 L 559.0665283203125 2845.966552734375 L 559.5875854492188 2846.48046875 L 544.5486450195313 2861.337890625 L 547.722900390625 2864.33740234375 L 547.21533203125 2864.862060546875 L 544.0291748046875 2861.85107421875 L 528.6483154296875 2877.04638671875 Z M 599.2614135742188 2848.968017578125 L 593.52392578125 2843.14501953125 L 599.2614135742188 2837.323974609375 L 604.9979858398438 2843.14501953125 L 599.2614135742188 2848.968017578125 Z M 525.5064086914063 2848.968017578125 L 519.7698364257813 2843.14501953125 L 525.5064086914063 2837.323974609375 L 531.2430419921875 2843.14501953125 L 525.5064086914063 2848.968017578125 Z M 562.3803100585938 2845.330322265625 C 561.165283203125 2845.330322265625 560.1798095703125 2844.353759765625 560.1798095703125 2843.149658203125 C 560.1798095703125 2841.9462890625 561.165283203125 2840.9697265625 562.3803100585938 2840.9697265625 C 563.5953369140625 2840.9697265625 564.5798950195313 2841.9462890625 564.5798950195313 2843.149658203125 C 564.5798950195313 2844.353759765625 563.5953369140625 2845.330322265625 562.3803100585938 2845.330322265625 Z M 565.9623413085938 2840.96875 L 565.4412231445313 2840.449462890625 L 580.8251953125 2825.14404296875 L 577.05029296875 2821.23193359375 L 577.5804443359375 2820.72509765625 L 581.344970703125 2824.626708984375 L 595.668701171875 2810.3759765625 L 596.189697265625 2810.89453125 L 581.8556518554688 2825.156005859375 L 595.208740234375 2838.9951171875 L 594.6795043945313 2839.501953125 L 581.3358154296875 2825.673095703125 L 565.9623413085938 2840.96875 Z M 558.6929931640625 2840.96875 L 543.248046875 2825.601806640625 L 529.8417358398438 2839.49658203125 L 529.309814453125 2838.988037109375 L 542.7266845703125 2825.083251953125 L 528.5772094726563 2811.005126953125 L 529.0964965820313 2810.488525390625 L 543.2353515625 2824.555908203125 L 547.0037841796875 2820.650390625 L 547.5357055664063 2821.157958984375 L 543.7567138671875 2825.07470703125 L 559.2123413085938 2840.4521484375 L 558.6929931640625 2840.96875 Z M 562.3803100585938 2824.93994140625 C 552.234619140625 2824.93994140625 544.0104370117188 2816.791259765625 544.0104370117188 2806.739990234375 C 544.0104370117188 2796.68896484375 552.234619140625 2788.540283203125 562.3803100585938 2788.540283203125 C 572.5250854492188 2788.540283203125 580.750244140625 2796.68896484375 580.750244140625 2806.739990234375 C 580.750244140625 2816.791259765625 572.5250854492188 2824.93994140625 562.3803100585938 2824.93994140625 Z M 599.1201171875 2808.919921875 C 597.9050903320313 2808.919921875 596.9196166992188 2807.9443359375 596.9196166992188 2806.739990234375 C 596.9196166992188 2805.535888671875 597.9050903320313 2804.560302734375 599.1201171875 2804.560302734375 C 600.3351440429688 2804.560302734375 601.3197631835938 2805.535888671875 601.3197631835938 2806.739990234375 C 601.3197631835938 2807.9443359375 600.3351440429688 2808.919921875 599.1201171875 2808.919921875 Z M 525.6504516601563 2808.919921875 C 524.4354248046875 2808.919921875 523.449951171875 2807.9443359375 523.449951171875 2806.739990234375 C 523.449951171875 2805.535888671875 524.4354248046875 2804.560302734375 525.6504516601563 2804.560302734375 C 526.8654174804688 2804.560302734375 527.8500366210938 2805.535888671875 527.8500366210938 2806.739990234375 C 527.8500366210938 2807.9443359375 526.8654174804688 2808.919921875 525.6504516601563 2808.919921875 Z M 595.6722412109375 2804.224609375 L 580.2552490234375 2788.947509765625 L 577.3328857421875 2791.71728515625 L 576.8253173828125 2791.190673828125 L 579.7354736328125 2788.432373046875 L 564.9273071289063 2773.7587890625 L 565.44482421875 2773.24560546875 L 580.2645874023438 2787.930908203125 L 593.724609375 2775.173583984375 L 594.2322387695313 2775.699951171875 L 580.7843017578125 2788.446044921875 L 596.189697265625 2803.711669921875 L 595.6722412109375 2804.224609375 Z M 528.844482421875 2804.087646484375 L 528.3251953125 2803.572998046875 L 543.6557006835938 2788.3828125 L 530.5275268554688 2775.940185546875 L 531.0342407226563 2775.41552734375 L 544.1734008789063 2787.869873046875 L 559.185302734375 2772.995361328125 L 559.70458984375 2773.51025390625 L 544.704345703125 2788.373291015625 L 547.8704833984375 2791.374267578125 L 547.3646850585938 2791.898193359375 L 544.1867065429688 2788.885986328125 L 528.844482421875 2804.087646484375 Z M 599.2758178710938 2775.997802734375 L 593.5535888671875 2770.173095703125 L 599.2758178710938 2764.34912109375 L 604.9979858398438 2770.173095703125 L 599.2758178710938 2775.997802734375 Z M 525.710693359375 2775.997802734375 L 519.9894409179688 2770.173095703125 L 525.710693359375 2764.34912109375 L 531.4329223632813 2770.173095703125 L 525.710693359375 2775.997802734375 Z M 562.4901123046875 2772.35009765625 C 561.2750854492188 2772.35009765625 560.2896118164063 2771.373779296875 560.2896118164063 2770.17041015625 C 560.2896118164063 2768.966064453125 561.2750854492188 2767.98974609375 562.4901123046875 2767.98974609375 C 563.7051391601563 2767.98974609375 564.689697265625 2768.966064453125 564.689697265625 2770.17041015625 C 564.689697265625 2771.373779296875 563.7051391601563 2772.35009765625 562.4901123046875 2772.35009765625 Z M 566.0621948242188 2767.9951171875 L 565.5429077148438 2767.4765625 L 580.8878173828125 2752.164306640625 L 577.122314453125 2748.25 L 577.6514892578125 2747.7431640625 L 581.4065551757813 2751.646728515625 L 595.6929321289063 2737.390625 L 596.213134765625 2737.908935546875 L 581.91552734375 2752.17578125 L 595.2348022460938 2766.021484375 L 594.7056274414063 2766.528076171875 L 581.3968505859375 2752.693359375 L 566.0621948242188 2767.9951171875 Z M 558.8118286132813 2767.9951171875 L 543.4070434570313 2752.6220703125 L 530.0343017578125 2766.522705078125 L 529.5042114257813 2766.01416015625 L 542.8870239257813 2752.103271484375 L 528.7742919921875 2738.019775390625 L 529.2918090820313 2737.503173828125 L 543.3942260742188 2751.575927734375 L 547.1531982421875 2747.66845703125 L 547.6832885742188 2748.177001953125 L 543.914306640625 2752.094970703125 L 559.3302001953125 2767.478515625 L 558.8118286132813 2767.9951171875 Z M 562.4901123046875 2751.9697265625 C 552.372314453125 2751.9697265625 544.1697387695313 2743.8173828125 544.1697387695313 2733.760009765625 C 544.1697387695313 2723.702392578125 552.372314453125 2715.55029296875 562.4901123046875 2715.55029296875 C 572.60791015625 2715.55029296875 580.8096313476563 2723.702392578125 580.8096313476563 2733.760009765625 C 580.8096313476563 2743.8173828125 572.60791015625 2751.9697265625 562.4901123046875 2751.9697265625 Z M 599.139892578125 2735.94970703125 C 597.9249267578125 2735.94970703125 596.9403076171875 2734.969482421875 596.9403076171875 2733.760009765625 C 596.9403076171875 2732.55029296875 597.9249267578125 2731.5703125 599.139892578125 2731.5703125 C 600.3549194335938 2731.5703125 601.3403930664063 2732.55029296875 601.3403930664063 2733.760009765625 C 601.3403930664063 2734.969482421875 600.3549194335938 2735.94970703125 599.139892578125 2735.94970703125 Z M 525.8502197265625 2735.94970703125 C 524.6351928710938 2735.94970703125 523.6497192382813 2734.969482421875 523.6497192382813 2733.760009765625 C 523.6497192382813 2732.55029296875 524.6351928710938 2731.5703125 525.8502197265625 2731.5703125 C 527.065185546875 2731.5703125 528.0498046875 2732.55029296875 528.0498046875 2733.760009765625 C 528.0498046875 2734.969482421875 527.065185546875 2735.94970703125 525.8502197265625 2735.94970703125 Z M 595.696533203125 2731.2353515625 L 580.3187866210938 2715.9521484375 L 577.4039916992188 2718.72265625 L 576.8973388671875 2718.197265625 L 579.8007202148438 2715.437255859375 L 565.0299072265625 2700.757080078125 L 565.5465087890625 2700.243896484375 L 580.3285522460938 2714.935302734375 L 593.75341796875 2702.173583984375 L 594.2601318359375 2702.699951171875 L 580.8466796875 2715.4501953125 L 596.213134765625 2730.722412109375 L 595.696533203125 2731.2353515625 Z M 529.0407104492188 2731.099609375 L 528.5223388671875 2730.584716796875 L 543.8132934570313 2715.38818359375 L 530.71923828125 2702.9404296875 L 531.22412109375 2702.415771484375 L 544.3299560546875 2714.87451171875 L 559.30322265625 2699.99365234375 L 559.8207397460938 2700.508544921875 L 544.8594360351563 2715.3779296875 L 548.0172119140625 2718.3798828125 L 547.5123291015625 2718.904541015625 L 544.3427734375 2715.891357421875 L 529.0407104492188 2731.099609375 Z M 599.2902221679688 2702.998046875 L 593.5833129882813 2697.17041015625 L 599.2902221679688 2691.34375 L 604.9979858398438 2697.17041015625 L 599.2902221679688 2702.998046875 Z M 525.9150390625 2702.998046875 L 520.2081298828125 2697.17041015625 L 525.9150390625 2691.34375 L 531.622802734375 2697.17041015625 L 525.9150390625 2702.998046875 Z M 562.5999145507813 2699.360107421875 C 561.3903198242188 2699.360107421875 560.4102172851563 2698.379150390625 560.4102172851563 2697.169677734375 C 560.4102172851563 2695.9609375 561.3903198242188 2694.97998046875 562.5999145507813 2694.97998046875 C 563.8095092773438 2694.97998046875 564.7896118164063 2695.9609375 564.7896118164063 2697.169677734375 C 564.7896118164063 2698.379150390625 563.8095092773438 2699.360107421875 562.5999145507813 2699.360107421875 Z M 566.1630249023438 2694.991455078125 L 565.6437377929688 2694.47314453125 L 580.9497680664063 2679.15380859375 L 577.1943359375 2675.23828125 L 577.7217407226563 2674.732666015625 L 581.46630859375 2678.636962890625 L 595.71630859375 2664.37451171875 L 596.235595703125 2664.893798828125 L 581.9745483398438 2679.166748046875 L 595.2590942382813 2693.017822265625 L 594.7326049804688 2693.523681640625 L 581.4580688476563 2679.68359375 L 566.1630249023438 2694.991455078125 Z M 558.9306030273438 2694.991455078125 L 543.5654907226563 2679.612548828125 L 530.227783203125 2693.518310546875 L 529.6986083984375 2693.0107421875 L 543.0467529296875 2679.09326171875 L 528.9705200195313 2665.00439453125 L 529.4871215820313 2664.487060546875 L 543.5527954101563 2678.565673828125 L 547.3016967773438 2674.656982421875 L 547.8309326171875 2675.16552734375 L 544.071533203125 2679.0849609375 L 559.4472045898438 2694.474853515625 L 558.9306030273438 2694.991455078125 Z M 562.5999145507813 2678.9599609375 C 552.510009765625 2678.9599609375 544.3298950195313 2670.80322265625 544.3298950195313 2660.740234375 C 544.3298950195313 2650.67724609375 552.510009765625 2642.519775390625 562.5999145507813 2642.519775390625 C 572.6898193359375 2642.519775390625 580.8699340820313 2650.67724609375 580.8699340820313 2660.740234375 C 580.8699340820313 2670.80322265625 572.6898193359375 2678.9599609375 562.5999145507813 2678.9599609375 Z M 599.1498413085938 2662.929931640625 C 597.940185546875 2662.929931640625 596.9601440429688 2661.949951171875 596.9601440429688 2660.740234375 C 596.9601440429688 2659.53076171875 597.940185546875 2658.549560546875 599.1498413085938 2658.549560546875 C 600.3594360351563 2658.549560546875 601.3403930664063 2659.53076171875 601.3403930664063 2660.740234375 C 601.3403930664063 2661.949951171875 600.3594360351563 2662.929931640625 599.1498413085938 2662.929931640625 Z M 526.0499877929688 2662.929931640625 C 524.8403930664063 2662.929931640625 523.8602905273438 2661.949951171875 523.8602905273438 2660.740234375 C 523.8602905273438 2659.53076171875 524.8403930664063 2658.549560546875 526.0499877929688 2658.549560546875 C 527.2595825195313 2658.549560546875 528.2396850585938 2659.53076171875 528.2396850585938 2660.740234375 C 528.2396850585938 2661.949951171875 527.2595825195313 2662.929931640625 526.0499877929688 2662.929931640625 Z M 595.7208251953125 2658.216552734375 L 580.3826904296875 2642.92724609375 L 577.47509765625 2645.699462890625 L 576.97021484375 2645.1728515625 L 579.8658447265625 2642.412109375 L 565.1334228515625 2627.7265625 L 565.648193359375 2627.212646484375 L 580.3922119140625 2641.91015625 L 593.7822265625 2629.14306640625 L 594.2880249023438 2629.669677734375 L 580.9091186523438 2642.42529296875 L 596.235595703125 2657.70361328125 L 595.7208251953125 2658.216552734375 Z M 529.2360229492188 2658.080810546875 L 528.7194213867188 2657.56591796875 L 543.9708862304688 2642.36279296875 L 530.910888671875 2629.909912109375 L 531.4140014648438 2629.38525390625 L 544.48583984375 2641.849365234375 L 559.4202270507813 2626.96240234375 L 559.937744140625 2627.47802734375 L 545.0142822265625 2642.353271484375 L 548.1639404296875 2645.3564453125 L 547.660888671875 2645.88134765625 L 544.4993286132813 2642.86669921875 L 529.2360229492188 2658.080810546875 Z" stroke="none" fill="#bb9c66"/>
    </g>
  </g>
</svg>
