<svg xmlns="http://www.w3.org/2000/svg" width="84.996" height="83.995" viewBox="0 0 84.996 83.995">
  <g id="pattern" transform="translate(-520.002 -2547.003)">
    <g id="Shape_83" data-name="Shape 83" fill="none">
      <path d="M560.41,2625.17a2.19,2.19,0,1,1,2.19,2.19A2.19,2.19,0,0,1,560.41,2625.17Zm5.234-2.7,15.306-15.319-3.755-3.916.527-.507,3.745,3.9,14.25-14.262.519.518-14.261,14.273,13.284,13.851-.526.507-13.275-13.84-15.3,15.309Zm-22.078-14.86-13.337,13.906-.529-.509,13.348-13.916L528.971,2593l.517-.517,14.066,14.079,3.749-3.909.529.509-3.759,3.919,15.376,15.39-.517.518Zm.765-18.873a18.27,18.27,0,1,1,18.27,18.22A18.245,18.245,0,0,1,544.33,2588.74Zm52.63,0a2.19,2.19,0,1,1,2.19,2.19A2.19,2.19,0,0,1,596.96,2588.74Zm-73.1,0a2.19,2.19,0,1,1,2.19,2.19A2.19,2.19,0,0,1,523.86,2588.74Zm56.523-17.812-2.908,2.772-.5-.528,2.9-2.76-14.732-14.686.515-.513,14.744,14.7,13.39-12.767.506.527-13.379,12.756,15.326,15.278-.515.514Zm-51.663,14.638,15.251-15.2-13.06-12.453.5-.525,13.072,12.464,14.934-14.887.518.516-14.923,14.875,3.149,3-.5.525-3.161-3.014-15.263,15.215Zm31.691-33.256a2.19,2.19,0,1,1,2.19,2.19A2.189,2.189,0,0,1,560.41,2552.31Z" stroke="none"/>
      <path d="M 562.5999145507813 2626.360107421875 C 563.2559204101563 2626.360107421875 563.7896118164063 2625.826171875 563.7896118164063 2625.169677734375 C 563.7896118164063 2624.513671875 563.2559204101563 2623.97998046875 562.5999145507813 2623.97998046875 C 561.9439086914063 2623.97998046875 561.4102172851563 2624.513671875 561.4102172851563 2625.169677734375 C 561.4102172851563 2625.826171875 561.9439086914063 2626.360107421875 562.5999145507813 2626.360107421875 M 562.5999145507813 2605.9599609375 C 567.2133178710938 2605.9599609375 571.550537109375 2604.16845703125 574.8125 2600.91552734375 C 578.0738525390625 2597.663330078125 579.8699340820313 2593.33935546875 579.8699340820313 2588.740234375 C 579.8699340820313 2584.140869140625 578.0738525390625 2579.81689453125 574.8125 2576.564453125 C 571.5504760742188 2573.311279296875 567.2133178710938 2571.519775390625 562.5999145507813 2571.519775390625 C 557.9865112304688 2571.519775390625 553.6493530273438 2573.311279296875 550.3873291015625 2576.564453125 C 547.1260375976563 2579.81689453125 545.3298950195313 2584.140869140625 545.3298950195313 2588.740234375 C 545.3298950195313 2593.33935546875 547.1260375976563 2597.663330078125 550.3873291015625 2600.91552734375 C 553.6492919921875 2604.16845703125 557.9865112304688 2605.9599609375 562.5999145507813 2605.9599609375 M 599.1498413085938 2589.929931640625 C 599.8063354492188 2589.929931640625 600.3403930664063 2589.396240234375 600.3403930664063 2588.740234375 C 600.3403930664063 2588.083740234375 599.8063354492188 2587.549560546875 599.1498413085938 2587.549560546875 C 598.4938354492188 2587.549560546875 597.9601440429688 2588.083740234375 597.9601440429688 2588.740234375 C 597.9601440429688 2589.396240234375 598.4938354492188 2589.929931640625 599.1498413085938 2589.929931640625 M 526.0499877929688 2589.929931640625 C 526.7059936523438 2589.929931640625 527.2396850585938 2589.396240234375 527.2396850585938 2588.740234375 C 527.2396850585938 2588.083740234375 526.7059936523438 2587.549560546875 526.0499877929688 2587.549560546875 C 525.3939819335938 2587.549560546875 524.8602905273438 2588.083740234375 524.8602905273438 2588.740234375 C 524.8602905273438 2589.396240234375 525.3939819335938 2589.929931640625 526.0499877929688 2589.929931640625 M 562.5999145507813 2553.499755859375 C 563.2559204101563 2553.499755859375 563.7896118164063 2552.966064453125 563.7896118164063 2552.31005859375 C 563.7896118164063 2551.654052734375 563.2559204101563 2551.120361328125 562.5999145507813 2551.120361328125 C 561.9439086914063 2551.120361328125 561.4102172851563 2551.654052734375 561.4102172851563 2552.31005859375 C 561.4102172851563 2552.966064453125 561.9439086914063 2553.499755859375 562.5999145507813 2553.499755859375 M 562.5999145507813 2627.360107421875 C 561.3903198242188 2627.360107421875 560.4102172851563 2626.379150390625 560.4102172851563 2625.169677734375 C 560.4102172851563 2623.9609375 561.3903198242188 2622.97998046875 562.5999145507813 2622.97998046875 C 563.8095092773438 2622.97998046875 564.7896118164063 2623.9609375 564.7896118164063 2625.169677734375 C 564.7896118164063 2626.379150390625 563.8095092773438 2627.360107421875 562.5999145507813 2627.360107421875 Z M 566.1630249023438 2622.992431640625 L 565.6437377929688 2622.47314453125 L 580.9497680664063 2607.15380859375 L 577.1943359375 2603.23828125 L 577.7217407226563 2602.731689453125 L 581.4667358398438 2606.636474609375 L 595.71630859375 2592.37451171875 L 596.235595703125 2592.892822265625 L 581.9749755859375 2607.166259765625 L 595.2590942382813 2621.016845703125 L 594.7326049804688 2621.523681640625 L 581.4580688476563 2607.68359375 L 566.1630249023438 2622.992431640625 Z M 558.9306030273438 2622.992431640625 L 543.5652465820313 2607.61279296875 L 530.227783203125 2621.518310546875 L 529.6986083984375 2621.009765625 L 543.0464477539063 2607.093505859375 L 528.9705200195313 2593.00439453125 L 529.4871215820313 2592.487060546875 L 543.5526733398438 2606.565673828125 L 547.3016967773438 2602.656982421875 L 547.8309326171875 2603.16552734375 L 544.071533203125 2607.0849609375 L 559.4472045898438 2622.474853515625 L 558.9306030273438 2622.992431640625 Z M 562.5999145507813 2606.9599609375 C 552.510009765625 2606.9599609375 544.3298950195313 2598.80322265625 544.3298950195313 2588.740234375 C 544.3298950195313 2578.67724609375 552.510009765625 2570.519775390625 562.5999145507813 2570.519775390625 C 572.6898193359375 2570.519775390625 580.8699340820313 2578.67724609375 580.8699340820313 2588.740234375 C 580.8699340820313 2598.80322265625 572.6898193359375 2606.9599609375 562.5999145507813 2606.9599609375 Z M 599.1498413085938 2590.929931640625 C 597.940185546875 2590.929931640625 596.9601440429688 2589.949951171875 596.9601440429688 2588.740234375 C 596.9601440429688 2587.53076171875 597.940185546875 2586.549560546875 599.1498413085938 2586.549560546875 C 600.3594360351563 2586.549560546875 601.3403930664063 2587.53076171875 601.3403930664063 2588.740234375 C 601.3403930664063 2589.949951171875 600.3594360351563 2590.929931640625 599.1498413085938 2590.929931640625 Z M 526.0499877929688 2590.929931640625 C 524.8403930664063 2590.929931640625 523.8602905273438 2589.949951171875 523.8602905273438 2588.740234375 C 523.8602905273438 2587.53076171875 524.8403930664063 2586.549560546875 526.0499877929688 2586.549560546875 C 527.2595825195313 2586.549560546875 528.2396850585938 2587.53076171875 528.2396850585938 2588.740234375 C 528.2396850585938 2589.949951171875 527.2595825195313 2590.929931640625 526.0499877929688 2590.929931640625 Z M 595.7208251953125 2586.217529296875 L 580.3828735351563 2570.927978515625 L 577.47509765625 2573.700439453125 L 576.97021484375 2573.1728515625 L 579.8656005859375 2570.412353515625 L 565.1334228515625 2555.7265625 L 565.648193359375 2555.21337890625 L 580.3919677734375 2569.910400390625 L 593.7822265625 2557.14306640625 L 594.2880249023438 2557.669677734375 L 580.9092407226563 2570.426025390625 L 596.235595703125 2585.70361328125 L 595.7208251953125 2586.217529296875 Z M 529.2360229492188 2586.08154296875 L 528.7194213867188 2585.56591796875 L 543.9708862304688 2570.36279296875 L 530.910888671875 2557.909912109375 L 531.4140014648438 2557.38525390625 L 544.48583984375 2569.849365234375 L 559.4202270507813 2554.96240234375 L 559.937744140625 2555.47802734375 L 545.0145263671875 2570.353515625 L 548.1639404296875 2573.3564453125 L 547.6608276367188 2573.88134765625 L 544.49951171875 2570.866943359375 L 529.2360229492188 2586.08154296875 Z M 562.5999145507813 2554.499755859375 C 561.3903198242188 2554.499755859375 560.4102172851563 2553.519775390625 560.4102172851563 2552.31005859375 C 560.4102172851563 2551.100341796875 561.3903198242188 2550.120361328125 562.5999145507813 2550.120361328125 C 563.8095092773438 2550.120361328125 564.7896118164063 2551.100341796875 564.7896118164063 2552.31005859375 C 564.7896118164063 2553.519775390625 563.8095092773438 2554.499755859375 562.5999145507813 2554.499755859375 Z" stroke="none" fill="#bb9c66"/>
    </g>
    <g id="Shape_84" data-name="Shape 84" fill="#bb9c66">
      <path d="M 599.2902221679688 2630.283447265625 L 594.2831420898438 2625.17041015625 L 599.2902221679688 2620.058349609375 L 604.298095703125 2625.17041015625 L 599.2902221679688 2630.283447265625 Z M 525.9151000976563 2630.283447265625 L 520.907958984375 2625.17041015625 L 525.9151000976563 2620.058349609375 L 530.9229125976563 2625.17041015625 L 525.9151000976563 2630.283447265625 Z M 598.7861938476563 2557.63134765625 L 593.8091430664063 2552.670166015625 L 598.7862548828125 2547.708740234375 L 603.7640991210938 2552.670166015625 L 598.7861938476563 2557.63134765625 Z M 525.688232421875 2557.63134765625 L 520.7102661132813 2552.670166015625 L 525.6881713867188 2547.708740234375 L 530.665283203125 2552.670166015625 L 525.688232421875 2557.63134765625 Z" stroke="none"/>
      <path d="M 599.290283203125 2629.56884765625 L 603.5982055664063 2625.17041015625 L 599.290283203125 2620.772705078125 L 594.9830322265625 2625.17041015625 L 599.290283203125 2629.56884765625 M 525.9151000976563 2629.56884765625 L 530.2230224609375 2625.17041015625 L 525.9151000976563 2620.772705078125 L 521.6078491210938 2625.17041015625 L 525.9151000976563 2629.56884765625 M 598.7862548828125 2556.925537109375 L 603.0558471679688 2552.670166015625 L 598.7862548828125 2548.41455078125 L 594.517333984375 2552.670166015625 L 598.7862548828125 2556.925537109375 M 525.6881713867188 2556.925537109375 L 529.9570922851563 2552.670166015625 L 525.6881713867188 2548.41455078125 L 521.4185791015625 2552.670166015625 L 525.6881713867188 2556.925537109375 M 599.2902221679688 2630.998046875 L 593.5833129882813 2625.17041015625 L 599.2902221679688 2619.34375 L 604.9979858398438 2625.17041015625 L 599.2902221679688 2630.998046875 Z M 525.9150390625 2630.998046875 L 520.2081298828125 2625.17041015625 L 525.9150390625 2619.34375 L 531.622802734375 2625.17041015625 L 525.9150390625 2630.998046875 Z M 598.7861938476563 2558.33740234375 L 593.1008911132813 2552.670166015625 L 598.7861938476563 2547.002685546875 L 604.472412109375 2552.670166015625 L 598.7861938476563 2558.33740234375 Z M 525.688232421875 2558.33740234375 L 520.0020141601563 2552.670166015625 L 525.688232421875 2547.002685546875 L 531.37353515625 2552.670166015625 L 525.688232421875 2558.33740234375 Z" stroke="none" fill="#bb9c66"/>
    </g>
  </g>
</svg>
