<svg xmlns="http://www.w3.org/2000/svg" width="32.994" height="27.981" viewBox="0 0 32.994 27.981">
  <g id="левая" transform="translate(-1105.951 -697.51)" fill="#fff" stroke-linejoin="round">
    <path d="M 1125.023681640625 725.5015258789063 L 1122.620483398438 723.6890869140625 L 1108.047485351563 712.6985473632813 L 1106.45947265625 711.5009765625 L 1108.047485351563 710.3034057617188 L 1122.620483398438 699.3128662109375 L 1125.023681640625 697.50048828125 L 1125.023681640625 700.510498046875 L 1125.023681640625 704.698974609375 L 1135.944580078125 704.698974609375 L 1137.444580078125 704.698974609375 L 1137.444580078125 706.198974609375 L 1137.444580078125 716.802978515625 L 1137.444580078125 718.302978515625 L 1135.944580078125 718.302978515625 L 1125.023681640625 718.302978515625 L 1125.023681640625 722.4915161132813 L 1125.023681640625 725.5015258789063 Z" stroke="none"/>
    <path d="M 1123.523681640625 722.4915161132813 L 1123.523681640625 716.802978515625 L 1135.944580078125 716.802978515625 L 1135.944580078125 706.198974609375 L 1123.523681640625 706.198974609375 L 1123.523681640625 700.510498046875 L 1108.95068359375 711.5009765625 L 1123.523681640625 722.4915161132813 M 1123.524047851563 725.4915161132813 C 1122.8837890625 725.4915161132813 1122.247802734375 725.2868041992188 1121.71728515625 724.88671875 L 1107.144287109375 713.8961791992188 C 1106.392578125 713.3292846679688 1105.95068359375 712.4424438476563 1105.95068359375 711.5009765625 C 1105.95068359375 710.5595092773438 1106.392700195313 709.6726684570313 1107.144287109375 709.1057739257813 L 1121.71728515625 698.1152954101563 C 1122.247802734375 697.7152099609375 1122.883911132813 697.510498046875 1123.524047851563 697.510498046875 C 1123.980102539063 697.510498046875 1124.438110351563 697.6143188476563 1124.861694335938 697.825439453125 C 1125.880004882813 698.3328857421875 1126.523681640625 699.3727416992188 1126.523681640625 700.510498046875 L 1126.523681640625 703.198974609375 L 1135.944580078125 703.198974609375 C 1137.601440429688 703.198974609375 1138.944580078125 704.5421142578125 1138.944580078125 706.198974609375 L 1138.944580078125 716.802978515625 C 1138.944580078125 718.4598388671875 1137.601440429688 719.802978515625 1135.944580078125 719.802978515625 L 1126.523681640625 719.802978515625 L 1126.523681640625 722.4915161132813 C 1126.523681640625 723.6292724609375 1125.880004882813 724.6691284179688 1124.861694335938 725.1765747070313 C 1124.438110351563 725.3876953125 1123.97998046875 725.4915161132813 1123.524047851563 725.4915161132813 Z" stroke="none" fill="#fd8424"/>
  </g>
</svg>
