<svg xmlns="http://www.w3.org/2000/svg" width="32.994" height="27.981" viewBox="0 0 32.994 27.981">
  <g id="правая_при_наведении" data-name="правая при наведении" transform="translate(-1231.009 -697.51)" fill="#fff" stroke-linejoin="round">
    <path d="M 1244.929809570313 725.5015258789063 L 1244.929809570313 722.4915161132813 L 1244.929809570313 718.302978515625 L 1234.009155273438 718.302978515625 L 1232.509155273438 718.302978515625 L 1232.509155273438 716.802978515625 L 1232.509155273438 706.198974609375 L 1232.509155273438 704.698974609375 L 1234.009155273438 704.698974609375 L 1244.929809570313 704.698974609375 L 1244.929809570313 700.510498046875 L 1244.929809570313 697.50048828125 L 1247.3330078125 699.3128662109375 L 1261.906005859375 710.3034057617188 L 1263.494018554688 711.5009765625 L 1261.906005859375 712.6985473632813 L 1247.3330078125 723.6890869140625 L 1244.929809570313 725.5015258789063 Z" stroke="none"/>
    <path d="M 1246.429809570313 722.4915161132813 L 1261.002807617188 711.5009765625 L 1246.429809570313 700.510498046875 L 1246.429809570313 706.198974609375 L 1234.009155273438 706.198974609375 L 1234.009155273438 716.802978515625 L 1246.429809570313 716.802978515625 L 1246.429809570313 722.4915161132813 M 1246.429443359375 725.4915161132813 C 1245.973388671875 725.4915161132813 1245.515380859375 725.3876953125 1245.091796875 725.1765747070313 C 1244.073486328125 724.6691284179688 1243.429809570313 723.6292724609375 1243.429809570313 722.4915161132813 L 1243.429809570313 719.802978515625 L 1234.009155273438 719.802978515625 C 1232.352294921875 719.802978515625 1231.009155273438 718.4598388671875 1231.009155273438 716.802978515625 L 1231.009155273438 706.198974609375 C 1231.009155273438 704.5421142578125 1232.352294921875 703.198974609375 1234.009155273438 703.198974609375 L 1243.429809570313 703.198974609375 L 1243.429809570313 700.510498046875 C 1243.429809570313 699.3727416992188 1244.073486328125 698.3328857421875 1245.091796875 697.825439453125 C 1245.515258789063 697.6143798828125 1245.973510742188 697.510498046875 1246.429443359375 697.510498046875 C 1247.069702148438 697.510498046875 1247.705688476563 697.7152099609375 1248.236206054688 698.1152954101563 L 1262.809204101563 709.1057739257813 C 1263.560791015625 709.6726684570313 1264.002807617188 710.5595092773438 1264.002807617188 711.5009765625 C 1264.002807617188 712.4424438476563 1263.560913085938 713.3292846679688 1262.809204101563 713.8961791992188 L 1248.236206054688 724.88671875 C 1247.705688476563 725.2868041992188 1247.069580078125 725.4915161132813 1246.429443359375 725.4915161132813 Z" stroke="none" fill="#009cb0"/>
  </g>
</svg>
