<svg xmlns="http://www.w3.org/2000/svg" width="18.98" height="21.573" viewBox="0 0 18.98 21.573">
  <path id="trash" d="M332.808,714.017a2.591,2.591,0,0,1-2.588-2.588l-1.726-13.807h17.258l-1.726,13.807a2.591,2.591,0,0,1-2.588,2.588Zm6.9-2.587h1.73V700.21h-1.73Zm-3.451,0h1.73V700.21h-1.73Zm-3.45,0h1.73V700.21h-1.73Zm-5.18-14.67v-1.3a1.29,1.29,0,0,1,1.291-1.29h16.4a1.29,1.29,0,0,1,1.29,1.29v1.3Zm6.9-2.59s.386-1.726.863-1.726h3.452c.476,0,.862,1.726.862,1.726Z" transform="translate(-327.63 -692.444)" fill="#888"/>
</svg>
